# Blender v2.83.0 OBJ File: 'arena.blend'
# www.blender.org
mtllib arena.mtl
o Block_basic_Würfel.004
v 5.000001 0.175744 0.500000
v -5.000000 0.175744 0.500000
v -5.000000 0.175744 -0.000000
v 5.000000 0.250000 0.037127
v -5.000000 0.250000 0.287127
v 5.000000 -0.250000 0.500000
v -5.000005 -0.250000 -20.499996
v 5.000000 0.250000 0.462873
v -5.018559 0.250000 0.462873
v 4.999996 0.250000 -20.037125
v -5.500000 -0.250000 0.000000
v -5.000005 0.250000 -20.037123
v -5.000001 0.175746 -19.999996
v 4.999994 0.175746 -19.999996
v 4.999996 0.175744 -20.499996
v 4.999998 0.175744 0.000007
v -5.000004 0.175744 -20.499996
v -5.000005 -0.250000 -19.999996
v -5.500000 -0.250000 -20.000000
v -5.500000 0.175746 -19.999998
v -5.462871 0.250000 -20.000000
v -5.462869 0.250000 0.018563
v -5.037120 0.250000 -20.000000
v -5.037119 0.250000 0.000000
v -5.500000 0.175746 -0.000002
v -5.000000 -0.250000 0.000000
v -5.000000 -0.249999 0.500000
v -5.500000 -0.249999 0.500000
v -5.500000 0.175748 0.499998
v -5.037119 0.249999 0.287128
v -5.462870 0.250001 0.462872
v 5.499999 0.175744 -0.000000
v 4.999999 -0.250000 0.000000
v 4.999999 0.175746 -0.250002
v 5.499998 0.175746 0.500000
v 5.499998 -0.249999 0.500000
v 5.462879 0.249999 0.037128
v 5.037129 0.250000 0.037126
v 5.462878 0.250000 0.462874
v 5.037128 0.250001 0.462872
v 5.037116 0.250000 -19.999996
v 5.037118 0.250000 0.000000
v 4.999996 -0.250000 -19.999996
v 5.462865 0.250000 -20.018560
v 5.462869 0.250000 0.000000
v 5.499996 0.175746 -19.999996
v 5.499998 -0.250000 0.000003
v 5.499996 -0.250000 -19.999996
v 5.018556 0.250000 -20.462872
v -5.000004 0.250000 -20.462868
v 4.999996 -0.249999 -20.499996
v 5.499997 -0.249999 -20.499996
v 5.499997 0.175748 -20.499996
v 5.037116 0.249999 -20.037125
v 5.462866 0.250001 -20.462870
v -5.500003 -0.250000 -20.500000
v -5.500003 0.175746 -20.500002
v -5.037122 0.249998 -20.462872
v -5.462873 0.250000 -20.462873
v -5.037123 0.249999 -20.037127
v -5.462873 0.250001 -20.037128
vt 0.278614 0.750000
vt 0.714521 0.518563
vt 0.714521 0.731436
vt 0.000000 0.000000
vt 0.000000 0.000000
vt 0.000000 0.000000
vt 0.587873 0.333334
vt 0.388127 0.842137
vt 0.375000 0.846386
vt 0.637872 0.879043
vt 0.587872 0.916667
vt 0.307227 0.750000
vt 0.000000 0.000000
vt 0.785479 0.518563
vt 0.785479 0.731437
vt 0.000000 0.000000
vt 0.000000 0.000000
vt 0.000000 0.000000
vt 0.000000 0.000000
vt 0.000000 0.000000
vt 0.000000 0.000000
vt 0.000000 0.000000
vt 0.335841 0.750000
vt 0.307227 0.750000
vt 0.302978 0.736874
vt 0.254249 0.736874
vt 0.587873 0.333334
vt 0.388127 0.842137
vt 0.375000 0.846386
vt 0.302978 0.736874
vt 0.254249 0.736874
vt 0.000000 0.000000
vt 0.714521 0.731436
vt 0.714521 0.518563
vt 0.785479 0.518563
vt 0.587873 0.333334
vt 0.388127 0.842137
vt 0.375000 0.846386
vt 0.000000 0.000000
vt 0.335841 0.750000
vt 0.587872 0.916667
vt 0.587873 0.333334
vt 0.637872 0.879043
vt 0.278614 0.750000
vt 0.714521 0.518563
vt 0.714521 0.731436
vt 0.388127 0.842137
vt 0.000000 0.000000
vt 0.000000 0.000000
vt 0.278614 0.750000
vt 0.000000 0.000000
vt 0.000000 0.000000
vt 0.785479 0.731437
vt 0.587872 0.916667
vt 0.375000 0.846386
vt 0.000000 0.000000
vt 0.637872 0.879043
vt 0.307227 0.750000
vt 0.785479 0.518563
vt 0.785479 0.731437
vt 0.000000 0.000000
vt 0.000000 0.000000
vt 0.335841 0.750000
vt 0.302978 0.736874
vt 0.254249 0.736874
vt 0.000000 0.000000
vt 0.000000 0.000000
vt 0.000000 0.000000
vt 0.000000 0.000000
vt 0.000000 0.000000
vt 0.000000 0.000000
vt 0.000000 0.000000
vt 0.000000 0.000000
vt 0.000000 0.000000
vt 0.000000 0.000000
vt 0.000000 0.000000
vt 0.000000 0.000000
vt 0.000000 0.000000
vt 0.000000 0.000000
vt 0.000000 0.000000
vt 0.000000 0.000000
vt 0.000000 0.000000
vt 0.000000 0.000000
vt 0.587872 0.916667
vt 0.637872 0.879043
vt 0.785479 0.518563
vt 0.000000 0.000000
vt 0.335841 0.750000
vt 0.278614 0.750000
vt 0.714521 0.731436
vt 0.785479 0.731437
vt 0.307227 0.750000
vt 0.714521 0.518563
vt 0.302978 0.736874
vt 0.254249 0.736874
vt 0.000000 0.000000
vt 0.000000 0.000000
vt 0.000000 0.000000
vt 0.000000 0.000000
vt 0.000000 0.000000
vt 0.000000 0.000000
vt 0.000000 0.000000
vt 0.000000 0.000000
vt 0.000000 0.000000
vt 0.000000 0.000000
vt 0.000000 0.000000
vt 0.000000 0.000000
vt 0.000000 0.000000
vt 0.000000 0.000000
vt 0.000000 0.000000
vt 0.000000 0.000000
vt 0.000000 0.000000
vt 0.000000 0.000000
vt 0.000000 0.000000
vt 0.000000 0.000000
vn 1.0000 -0.0000 -0.0000
vn -1.0000 0.0000 0.0000
vn 0.0000 0.4471 -0.8945
vn -0.0000 0.4472 0.8944
vn 0.0000 -0.0000 1.0000
vn -0.0000 1.0000 0.0000
vn 0.0000 -0.0000 -1.0000
vn -0.0000 -1.0000 -0.0000
vn -0.0063 0.9681 -0.2504
vn -0.9214 0.3762 -0.0973
vn -0.9702 -0.2425 0.0000
vn -0.0000 0.4472 -0.8944
vn -0.8944 0.4472 0.0000
vn 0.8944 0.4472 -0.0000
vn 0.9702 -0.2425 0.0000
vn 0.9988 0.0218 0.0435
vn 0.8945 0.4471 -0.0000
vn -0.8944 0.4473 0.0000
vn 0.0420 -0.2621 0.9641
vn 0.1451 0.9623 -0.2301
vn 0.4472 -0.0000 -0.8944
vn 0.0000 -0.5064 -0.8623
vn 0.3714 0.5571 -0.7428
vn 0.0000 -0.9681 0.2504
vn -0.8945 -0.4471 -0.0000
vn -0.0420 -0.2621 -0.9641
vn 0.8944 0.4473 -0.0000
vn 0.0000 0.0001 1.0000
vn -0.8945 0.4472 0.0000
vn -0.8945 0.4471 0.0000
vn -0.0386 0.4623 0.8859
vn 0.0000 -0.4472 -0.8944
vn 0.8944 -0.4472 0.0000
vn 0.8945 -0.4471 0.0000
vn 0.8944 -0.4473 -0.0001
vn 0.0000 0.2426 -0.9701
vn 0.7380 0.6703 -0.0779
vn 0.0000 0.9681 -0.2504
vn 0.0000 0.2425 0.9701
vn -0.8859 0.4622 0.0386
vn -0.0000 0.9682 -0.2504
vn 0.8945 -0.4471 -0.0003
vn 0.8944 0.4472 -0.0002
vn -0.8945 -0.4471 0.0001
vn -0.0002 0.4472 0.8944
vn -0.0002 -0.4472 0.8944
usemtl None
s off
f 16/1/1 4/2/1 8/3/1
f 3/4/2 27/5/2 2/6/2
f 3/7/3 4/8/3 16/9/3
f 9/10/4 2/11/4 1/12/4
f 2/11/5 27/5/5 6/13/5
f 8/3/6 5/14/6 9/15/6
f 25/16/5 26/17/5 3/4/5
f 3/4/7 33/18/7 26/17/7
f 27/5/8 33/18/8 6/13/8
f 33/18/1 1/19/1 6/13/1
f 14/20/5 13/21/5 18/22/5
f 1/23/1 16/1/1 8/3/1
f 3/4/2 26/17/2 27/5/2
f 3/7/9 5/14/9 4/8/9
f 9/10/10 5/14/10 3/7/10
f 3/7/11 2/11/11 9/10/11
f 6/13/5 1/23/5 2/11/5
f 17/24/12 50/25/12 49/26/12
f 25/27/13 21/28/13 20/29/13
f 8/3/6 4/2/6 5/14/6
f 1/12/4 8/30/4 9/31/4
f 3/4/7 16/32/7 33/18/7
f 27/5/8 26/17/8 33/18/8
f 33/18/1 16/32/1 1/19/1
f 50/33/6 12/34/6 10/35/6
f 46/36/14 45/37/14 32/38/14
f 7/39/7 17/40/7 15/41/7
f 14/42/15 15/41/15 49/43/15
f 20/44/7 21/45/7 23/46/7
f 49/43/16 10/35/16 14/42/16
f 14/42/4 10/35/4 12/47/4
f 14/20/1 43/48/1 51/49/1
f 17/40/2 13/50/2 50/33/2
f 18/22/2 17/51/2 7/39/2
f 51/49/8 18/22/8 7/39/8
f 14/20/5 18/22/5 43/48/5
f 46/52/7 43/48/7 14/20/7
f 50/33/6 10/35/6 49/53/6
f 3/54/1 26/17/1 18/22/1
f 15/41/7 51/49/7 7/39/7
f 49/43/12 15/41/12 17/24/12
f 14/42/4 12/47/4 13/55/4
f 14/20/1 51/49/1 15/56/1
f 13/50/2 12/34/2 50/33/2
f 24/57/17 3/54/17 13/58/17
f 23/46/6 22/59/6 24/60/6
f 25/16/2 19/61/2 11/62/2
f 26/17/8 19/61/8 18/22/8
f 19/61/7 13/21/7 18/22/7
f 13/63/7 20/44/7 23/46/7
f 25/16/5 11/62/5 26/17/5
f 25/27/18 22/59/18 21/28/18
f 24/57/19 22/59/19 25/27/19
f 25/27/5 3/54/5 24/57/5
f 18/22/1 13/63/1 3/54/1
f 23/46/6 21/45/6 22/59/6
f 13/58/17 23/64/17 24/65/17
f 25/16/2 20/66/2 19/61/2
f 26/17/8 11/62/8 19/61/8
f 19/61/7 20/66/7 13/21/7
f 29/67/5 27/5/5 2/6/5
f 29/67/5 28/68/5 27/5/5
f 30/69/6 31/70/6 9/71/6
f 3/4/20 22/72/20 30/69/20
f 11/62/8 27/5/8 28/68/8
f 25/16/18 31/70/18 22/72/18
f 2/6/4 31/70/4 29/67/4
f 11/62/2 28/68/2 25/16/2
f 28/68/2 29/67/2 25/16/2
f 34/73/21 32/74/21 47/75/21
f 34/73/22 47/75/22 33/18/22
f 1/19/5 36/76/5 35/77/5
f 1/19/5 6/13/5 36/76/5
f 37/78/6 40/79/6 39/80/6
f 34/73/23 37/78/23 32/74/23
f 33/18/8 36/76/8 6/13/8
f 1/19/13 38/81/13 34/73/13
f 35/77/17 37/78/17 39/80/17
f 1/19/4 39/80/4 40/79/4
f 33/18/2 6/13/2 34/73/2
f 6/13/2 1/19/2 34/73/2
f 3/4/24 5/82/24 30/69/24
f 3/4/25 30/69/25 24/83/25
f 30/69/8 22/72/8 24/83/8
f 30/69/8 5/82/8 9/71/8
f 36/76/1 47/75/1 35/77/1
f 47/75/1 32/74/1 35/77/1
f 46/36/7 14/84/7 41/85/7
f 41/85/26 44/86/26 46/36/26
f 46/36/27 44/86/27 45/37/27
f 46/52/7 48/87/7 43/48/7
f 16/88/28 32/89/28 42/90/28
f 47/75/5 16/32/5 33/18/5
f 43/48/8 47/75/8 33/18/8
f 46/52/1 47/75/1 48/87/1
f 42/90/6 44/86/6 41/91/6
f 41/85/29 14/84/29 16/92/29
f 14/84/2 43/48/2 33/18/2
f 32/89/5 45/93/5 42/90/5
f 18/22/2 13/21/2 17/51/2
f 51/49/8 43/48/8 18/22/8
f 33/18/2 16/88/2 14/84/2
f 42/90/6 45/93/6 44/86/6
f 16/92/30 42/94/30 41/95/30
f 46/52/1 32/74/1 47/75/1
f 43/48/8 48/87/8 47/75/8
f 47/75/5 32/74/5 16/32/5
f 53/96/7 51/49/7 15/56/7
f 53/96/7 52/97/7 51/49/7
f 54/98/6 55/99/6 49/100/6
f 14/20/31 44/101/31 54/98/31
f 48/87/8 51/49/8 52/97/8
f 46/52/27 55/99/27 44/101/27
f 15/56/12 55/99/12 53/96/12
f 48/87/1 52/97/1 46/52/1
f 52/97/1 53/96/1 46/52/1
f 14/20/32 10/102/32 54/98/32
f 14/20/33 54/98/33 41/103/33
f 54/98/8 44/101/8 41/103/8
f 54/98/8 10/102/8 49/100/8
f 57/104/7 17/51/7 7/39/7
f 57/104/7 7/39/7 56/105/7
f 20/66/5 18/22/5 13/21/5
f 20/66/5 19/61/5 18/22/5
f 58/106/6 61/107/6 60/108/6
f 57/104/12 58/106/12 17/51/12
f 56/105/8 18/22/8 19/61/8
f 20/66/13 59/109/13 57/104/13
f 13/21/14 58/106/14 60/108/14
f 20/66/4 60/108/4 61/107/4
f 56/105/2 19/61/2 57/104/2
f 19/61/2 20/66/2 57/104/2
f 18/22/1 7/39/1 13/21/1
f 7/39/1 17/51/1 13/21/1
f 4/2/2 34/73/2 16/1/2
f 42/110/34 16/32/34 34/73/34
f 45/111/8 38/81/8 42/110/8
f 4/2/8 40/79/8 8/112/8
f 60/108/8 50/113/8 12/114/8
f 21/28/35 20/66/35 61/107/35
f 60/108/8 21/45/8 61/107/8
f 30/69/6 22/72/6 31/70/6
f 3/4/36 25/16/36 22/72/36
f 11/62/8 26/17/8 27/5/8
f 25/16/13 29/67/13 31/70/13
f 3/4/37 30/69/37 9/71/37
f 2/6/4 9/71/4 31/70/4
f 37/78/6 38/81/6 40/79/6
f 34/73/38 38/81/38 37/78/38
f 33/18/8 47/75/8 36/76/8
f 1/19/13 40/79/13 38/81/13
f 35/77/17 32/74/17 37/78/17
f 1/19/4 35/77/4 39/80/4
f 54/98/6 44/101/6 55/99/6
f 14/20/39 46/52/39 44/101/39
f 48/87/8 43/48/8 51/49/8
f 46/52/14 53/96/14 55/99/14
f 14/20/40 54/98/40 49/100/40
f 15/56/12 49/100/12 55/99/12
f 58/106/6 59/109/6 61/107/6
f 57/104/12 59/109/12 58/106/12
f 56/105/8 7/39/8 18/22/8
f 20/66/13 61/107/13 59/109/13
f 13/21/17 17/51/17 58/106/17
f 20/66/4 13/21/4 60/108/4
f 4/2/41 38/81/41 34/73/41
f 42/110/42 38/81/42 16/32/42
f 45/111/43 37/78/43 32/74/43
f 45/111/8 37/78/8 38/81/8
f 8/112/32 40/79/32 1/19/32
f 4/2/8 38/81/8 40/79/8
f 23/115/44 60/108/44 13/21/44
f 12/114/45 60/108/45 13/21/45
f 50/113/46 58/106/46 17/51/46
f 60/108/8 58/106/8 50/113/8
f 60/108/8 23/115/8 21/45/8
