# Blender v2.83.0 OBJ File: 'Block_basic.blend'
# www.blender.org
mtllib Block_basic.mtl
o Block_basic_Würfel.004
v 1.000000 -0.250000 -0.500000
v 0.000000 -0.250000 -0.500000
v 1.000001 0.175744 0.500000
v 0.000000 0.175744 -0.500000
v 0.000001 0.175744 0.500000
v 0.000002 0.175746 -0.500000
v 0.999998 0.175746 -0.500001
v 1.000003 0.175746 -0.500001
v 0.925745 0.250000 -0.425747
v 0.074256 0.250000 -0.425747
v 0.000000 -0.250000 0.500000
v 1.000000 -0.250000 0.500000
v 1.000003 0.175746 0.499999
v 0.925745 0.250000 0.425746
v 0.074256 0.250000 0.425746
v 0.999998 0.175746 0.499999
v -0.000001 0.175746 0.500000
v 0.000003 0.175746 0.500000
vt 0.335841 0.750000
vt 0.278614 0.750000
vt 0.714521 0.518563
vt 0.714521 0.731436
vt 0.335853 0.750000
vt 0.000000 0.000000
vt 0.000000 0.000000
vt 0.000000 0.000000
vt 0.000000 0.000000
vt 0.375000 0.846386
vt 0.587873 0.333334
vt 0.785479 0.518563
vt 0.388127 0.842137
vt 0.587872 0.916667
vt 0.587873 0.916666
vt 0.637872 0.879043
vt 0.000000 0.000000
vt 0.785479 0.731437
vt 0.307227 0.750000
vt 0.302978 0.736874
vt 0.254249 0.736874
vt 0.250000 0.750000
vt 0.000000 0.000000
vt 0.000000 0.000000
vt 0.000000 0.000000
vn 0.7071 0.7071 0.0000
vn -1.0000 0.0000 -0.0000
vn -0.0000 0.7071 -0.7071
vn -0.7071 0.7071 0.0000
vn 0.0000 0.0000 1.0000
vn 0.0000 1.0000 0.0000
vn 0.0000 0.7071 0.7071
vn -0.0000 -0.0000 -1.0000
vn 0.0000 -1.0000 0.0000
vn 1.0000 -0.0000 0.0000
usemtl None
s off
f 3/1/1 8/2/1 9/3/1 14/4/1 16/5/1
f 17/6/2 6/7/2 2/8/2 11/9/2
f 7/10/3 6/11/3 10/12/3 9/13/3
f 10/12/4 6/11/4 5/14/4 18/15/4 15/16/4
f 3/1/5 16/5/5 18/15/5 5/14/5 11/9/5 12/17/5
f 15/18/6 14/4/6 9/3/6 10/12/6
f 16/19/7 14/20/7 15/21/7 18/22/7
f 6/7/8 8/23/8 1/24/8 2/8/8
f 12/17/9 11/9/9 2/8/9 1/24/9
f 12/17/10 1/24/10 8/23/10 16/25/10
l 1 7
l 3 13
l 13 16
l 18 17
