# Blender v2.83.0 OBJ File: 'Block_basic.blend'
# www.blender.org
mtllib Block_J.mtl
o Block_basic_Würfel.004
v 0.500000 -0.250000 -0.500000
v -0.500000 -0.250000 -0.500000
v 0.500001 0.175744 0.500000
v -0.500000 0.175744 -0.500000
v -0.499999 0.175744 0.500000
v -0.499998 0.175746 -0.500000
v 0.499998 0.175746 -0.500001
v 0.500003 0.175746 -0.500001
v 0.425745 0.250000 -0.425747
v -0.425744 0.250000 -0.425747
v -0.500000 -0.250000 0.500000
v 0.500000 -0.250000 0.500000
v 0.500003 0.175746 0.499999
v 0.425745 0.250000 0.425746
v -0.425744 0.250000 0.425746
v 0.499998 0.175746 0.499999
v -0.500001 0.175746 0.500000
v -0.499997 0.175746 0.500000
v 1.500000 -0.250000 -0.500000
v 0.500000 -0.250000 -0.500000
v 1.500001 0.175744 0.500000
v 0.500000 0.175744 -0.500000
v 0.500001 0.175744 0.500000
v 0.500002 0.175746 -0.500000
v 1.499998 0.175746 -0.500001
v 1.500003 0.175746 -0.500001
v 1.425745 0.250000 -0.425747
v 0.574256 0.250000 -0.425747
v 0.500000 -0.250000 0.500000
v 1.500000 -0.250000 0.500000
v 1.500003 0.175746 0.499999
v 1.425745 0.250000 0.425746
v 0.574256 0.250000 0.425746
v 1.499998 0.175746 0.499999
v 0.499999 0.175746 0.500000
v 0.500003 0.175746 0.500000
v 2.500000 -0.250000 -0.500000
v 1.500000 -0.250000 -0.500000
v 2.500001 0.175744 0.500000
v 1.500000 0.175744 -0.500000
v 1.500001 0.175744 0.500000
v 1.500002 0.175746 -0.500000
v 2.499998 0.175746 -0.500001
v 2.500003 0.175746 -0.500001
v 2.425745 0.250000 -0.425747
v 1.574256 0.250000 -0.425747
v 1.500000 -0.250000 0.500000
v 2.500000 -0.250000 0.500000
v 2.500003 0.175746 0.499999
v 2.425745 0.250000 0.425746
v 1.574256 0.250000 0.425746
v 2.499999 0.175746 0.499999
v 1.499999 0.175746 0.500000
v 1.500003 0.175746 0.500000
v 0.500000 -0.250000 -1.500000
v -0.500000 -0.250000 -1.500000
v 0.500001 0.175744 -0.500000
v -0.500000 0.175744 -1.500000
v -0.499999 0.175744 -0.500000
v -0.499998 0.175746 -1.500000
v 0.499998 0.175746 -1.500001
v 0.500003 0.175746 -1.500001
v 0.425745 0.250000 -1.425747
v -0.425744 0.250000 -1.425746
v -0.500000 -0.250000 -0.500000
v 0.500000 -0.250000 -0.500000
v 0.500003 0.175746 -0.500001
v 0.425745 0.250000 -0.574254
v -0.425744 0.250000 -0.574254
v 0.499998 0.175746 -0.500001
v -0.500001 0.175746 -0.500000
v -0.499997 0.175746 -0.500000
vt 0.278614 0.750000
vt 0.714521 0.518563
vt 0.714521 0.731436
vt 0.000000 0.000000
vt 0.000000 0.000000
vt 0.000000 0.000000
vt 0.587873 0.333334
vt 0.388127 0.842137
vt 0.375000 0.846386
vt 0.587872 0.916667
vt 0.587873 0.916666
vt 0.637872 0.879043
vt 0.000000 0.000000
vt 0.785479 0.518563
vt 0.785479 0.731437
vt 0.307227 0.750000
vt 0.254249 0.736874
vt 0.250000 0.750000
vt 0.000000 0.000000
vt 0.000000 0.000000
vt 0.000000 0.000000
vt 0.335853 0.750000
vt 0.335841 0.750000
vt 0.302978 0.736874
vt 0.000000 0.000000
vt 0.278614 0.750000
vt 0.714521 0.518563
vt 0.714521 0.731436
vt 0.000000 0.000000
vt 0.000000 0.000000
vt 0.000000 0.000000
vt 0.587873 0.333334
vt 0.388127 0.842137
vt 0.375000 0.846386
vt 0.587872 0.916667
vt 0.587873 0.916666
vt 0.637872 0.879043
vt 0.000000 0.000000
vt 0.785479 0.518563
vt 0.785479 0.731437
vt 0.307227 0.750000
vt 0.254249 0.736874
vt 0.250000 0.750000
vt 0.000000 0.000000
vt 0.000000 0.000000
vt 0.000000 0.000000
vt 0.335853 0.750000
vt 0.335841 0.750000
vt 0.302978 0.736874
vt 0.000000 0.000000
vt 0.278614 0.750000
vt 0.714521 0.518563
vt 0.714521 0.731436
vt 0.000000 0.000000
vt 0.000000 0.000000
vt 0.000000 0.000000
vt 0.587873 0.333334
vt 0.388127 0.842137
vt 0.375000 0.846386
vt 0.587872 0.916667
vt 0.587873 0.916666
vt 0.637872 0.879043
vt 0.000000 0.000000
vt 0.785479 0.518563
vt 0.785479 0.731437
vt 0.307227 0.750000
vt 0.254249 0.736874
vt 0.250000 0.750000
vt 0.000000 0.000000
vt 0.000000 0.000000
vt 0.000000 0.000000
vt 0.335853 0.750000
vt 0.335841 0.750000
vt 0.302978 0.736874
vt 0.000000 0.000000
vt 0.278614 0.750000
vt 0.714521 0.518563
vt 0.714521 0.731436
vt 0.000000 0.000000
vt 0.000000 0.000000
vt 0.000000 0.000000
vt 0.587873 0.333334
vt 0.388127 0.842137
vt 0.375000 0.846386
vt 0.587872 0.916667
vt 0.587873 0.916666
vt 0.637872 0.879043
vt 0.000000 0.000000
vt 0.785479 0.518563
vt 0.785479 0.731437
vt 0.307227 0.750000
vt 0.254249 0.736874
vt 0.250000 0.750000
vt 0.000000 0.000000
vt 0.000000 0.000000
vt 0.000000 0.000000
vt 0.335853 0.750000
vt 0.335841 0.750000
vt 0.302978 0.736874
vt 0.000000 0.000000
vn 0.7071 0.7071 -0.0000
vn -1.0000 -0.0000 -0.0000
vn -0.0000 0.7071 -0.7071
vn -0.7071 0.7071 0.0000
vn 0.0000 -0.0000 1.0000
vn 0.0000 1.0000 0.0000
vn 0.0000 0.7071 0.7071
vn 0.0000 0.0000 -1.0000
vn 0.0000 -1.0000 0.0000
vn 1.0000 0.0000 -0.0000
vn 0.0000 0.3237 0.9462
vn 0.0000 0.1552 0.9879
vn -0.7070 0.7070 -0.0186
vn 0.7311 0.6823 0.0000
vn 0.0000 0.3199 0.9474
vn 0.0000 0.1559 0.9878
vn -0.6877 0.7239 0.0543
vn 0.6832 0.7288 0.0455
vn 0.0000 0.1557 0.9878
vn -0.7250 0.6887 0.0000
usemtl None
s off
f 8/1/1 9/2/1 14/3/1
f 6/4/2 11/5/2 17/6/2
f 6/7/3 9/8/3 7/9/3
f 5/10/4 18/11/4 15/12/4
f 5/10/5 11/5/5 12/13/5
f 14/3/6 10/14/6 15/15/6
f 16/16/7 15/17/7 18/18/7
f 6/4/8 1/19/8 2/20/8
f 11/5/9 1/19/9 12/13/9
f 1/19/10 16/21/10 12/13/10
f 16/22/1 3/23/1 14/3/1
f 3/23/1 8/1/1 14/3/1
f 6/4/2 2/20/2 11/5/2
f 6/7/3 10/14/3 9/8/3
f 15/12/4 10/14/4 6/7/4
f 6/7/4 5/10/4 15/12/4
f 12/13/5 3/23/5 5/10/5
f 3/23/11 16/22/11 5/10/11
f 16/22/12 18/11/12 5/10/12
f 14/3/6 9/2/6 10/14/6
f 16/16/7 14/24/7 15/17/7
f 6/4/8 8/25/8 1/19/8
f 11/5/9 2/20/9 1/19/9
f 1/19/10 8/25/10 16/21/10
f 26/26/1 27/27/1 32/28/1
f 24/29/2 29/30/2 35/31/2
f 24/32/3 27/33/3 25/34/3
f 23/35/13 36/36/13 33/37/13
f 23/35/5 29/30/5 30/38/5
f 32/28/6 28/39/6 33/40/6
f 34/41/7 33/42/7 36/43/7
f 24/29/8 19/44/8 20/45/8
f 29/30/9 19/44/9 30/38/9
f 19/44/10 34/46/10 30/38/10
f 34/47/14 21/48/14 32/28/14
f 21/48/1 26/26/1 32/28/1
f 24/29/2 20/45/2 29/30/2
f 24/32/3 28/39/3 27/33/3
f 33/37/4 28/39/4 24/32/4
f 24/32/4 23/35/4 33/37/4
f 30/38/5 21/48/5 23/35/5
f 21/48/15 34/47/15 23/35/15
f 34/47/16 36/36/16 23/35/16
f 32/28/6 27/27/6 28/39/6
f 34/41/7 32/49/7 33/42/7
f 24/29/8 26/50/8 19/44/8
f 29/30/9 20/45/9 19/44/9
f 19/44/10 26/50/10 34/46/10
f 44/51/1 45/52/1 50/53/1
f 42/54/2 47/55/2 53/56/2
f 42/57/3 45/58/3 43/59/3
f 41/60/17 54/61/17 51/62/17
f 41/60/5 47/55/5 48/63/5
f 50/53/6 46/64/6 51/65/6
f 52/66/7 51/67/7 54/68/7
f 42/54/8 37/69/8 38/70/8
f 47/55/9 37/69/9 48/63/9
f 37/69/10 52/71/10 48/63/10
f 52/72/18 39/73/18 50/53/18
f 39/73/1 44/51/1 50/53/1
f 42/54/2 38/70/2 47/55/2
f 42/57/3 46/64/3 45/58/3
f 51/62/4 46/64/4 42/57/4
f 42/57/4 41/60/4 51/62/4
f 48/63/5 39/73/5 41/60/5
f 39/73/11 52/72/11 41/60/11
f 52/72/19 54/61/19 41/60/19
f 50/53/6 45/52/6 46/64/6
f 52/66/7 50/74/7 51/67/7
f 42/54/8 44/75/8 37/69/8
f 47/55/9 38/70/9 37/69/9
f 37/69/10 44/75/10 52/71/10
f 62/76/1 63/77/1 68/78/1
f 60/79/2 65/80/2 71/81/2
f 60/82/3 63/83/3 61/84/3
f 59/85/20 72/86/20 69/87/20
f 59/85/5 65/80/5 66/88/5
f 68/78/6 64/89/6 69/90/6
f 70/91/7 69/92/7 72/93/7
f 60/79/8 55/94/8 56/95/8
f 65/80/9 55/94/9 66/88/9
f 55/94/10 70/96/10 66/88/10
f 70/97/1 57/98/1 68/78/1
f 57/98/1 62/76/1 68/78/1
f 60/79/2 56/95/2 65/80/2
f 60/82/3 64/89/3 63/83/3
f 69/87/4 64/89/4 60/82/4
f 60/82/4 59/85/4 69/87/4
f 66/88/5 57/98/5 59/85/5
f 57/98/11 70/97/11 59/85/11
f 70/97/12 72/86/12 59/85/12
f 68/78/6 63/77/6 64/89/6
f 70/91/7 68/99/7 69/92/7
f 60/79/8 62/100/8 55/94/8
f 65/80/9 56/95/9 55/94/9
f 55/94/10 62/100/10 70/96/10
l 1 7
l 3 13
l 13 16
l 18 17
l 19 25
l 21 31
l 31 34
l 36 35
l 37 43
l 39 49
l 49 52
l 54 53
l 55 61
l 57 67
l 67 70
l 72 71
