# Blender v2.83.0 OBJ File: ''
# www.blender.org
mtllib Block_L.mtl
o Block_J_Block_basic_Würfel.001
v 0.500001 0.500003 0.175746
v 0.425747 0.425745 0.250000
v -0.425746 0.425745 0.250000
v 0.500000 -0.499998 0.175746
v -0.500000 -0.500000 -0.250000
v -0.500000 -0.500001 0.175746
v 0.500001 0.499998 0.175746
v -0.500000 -0.499999 0.175744
v -0.500000 -0.499997 0.175746
v -0.425746 -0.425744 0.250000
v -0.500000 0.500000 -0.250000
v 0.425747 -0.425744 0.250000
v -0.499999 0.499998 0.175746
v 0.500000 0.500000 -0.250000
v 0.500000 -0.500000 -0.250000
v -0.500000 0.500001 0.175744
v 0.500001 1.500003 0.175746
v 0.425747 1.425745 0.250000
v -0.425746 1.425745 0.250000
v 0.500000 0.500002 0.175746
v -0.500000 0.500000 -0.250000
v -0.500000 0.499999 0.175746
v 0.500001 1.499998 0.175746
v -0.500000 0.500001 0.175744
v -0.500000 0.500003 0.175746
v -0.425746 0.574256 0.250000
v -0.500000 1.500000 -0.250000
v 0.425747 0.574256 0.250000
v -0.499999 1.499998 0.175746
v 0.500000 1.500000 -0.250000
v 0.500000 0.500000 -0.250000
v -0.500000 1.500001 0.175744
v 0.500001 2.500003 0.175746
v 0.425747 2.425745 0.250000
v -0.425746 2.425745 0.250000
v 0.500000 1.500002 0.175746
v -0.500000 1.500000 -0.250000
v -0.500000 1.499999 0.175746
v 0.500001 2.499998 0.175746
v -0.500000 1.500001 0.175744
v -0.500000 1.500003 0.175746
v -0.425746 1.574256 0.250000
v -0.500000 2.500000 -0.250000
v 0.425747 1.574256 0.250000
v -0.499999 2.499999 0.175746
v 0.500000 2.500000 -0.250000
v 0.500000 1.500000 -0.250000
v -0.500000 2.500001 0.175744
v 1.500001 0.500003 0.175747
v 1.425747 0.425745 0.250001
v 0.574254 0.425745 0.250000
v 1.500000 -0.499998 0.175747
v 0.500000 -0.500000 -0.250000
v 0.500000 -0.500001 0.175746
v 1.500001 0.499998 0.175747
v 0.500000 -0.499999 0.175744
v 0.500000 -0.499997 0.175746
v 0.574254 -0.425744 0.250000
v 0.500000 0.500000 -0.250000
v 1.425746 -0.425744 0.250001
v 0.500001 0.499998 0.175746
v 1.500000 0.500000 -0.249999
v 1.500000 -0.500000 -0.249999
v 0.500000 0.500001 0.175744
v -0.499999 0.500003 0.175746
v -0.499999 1.500003 0.175746
v -0.499999 2.500003 0.175746
v 0.500001 0.500003 0.175746
vt 0.278614 0.750000
vt 0.714521 0.731436
vt 0.714521 0.518563
vt 0.000000 0.000000
vt 0.000000 0.000000
vt 0.000000 0.000000
vt 0.587873 0.333334
vt 0.375000 0.846386
vt 0.388127 0.842137
vt 0.587872 0.916667
vt 0.637872 0.879043
vt 0.587873 0.916666
vt 0.000000 0.000000
vt 0.785479 0.731437
vt 0.785479 0.518563
vt 0.307227 0.750000
vt 0.250000 0.750000
vt 0.254249 0.736874
vt 0.000000 0.000000
vt 0.000000 0.000000
vt 0.000000 0.000000
vt 0.335853 0.750000
vt 0.335841 0.750000
vt 0.302978 0.736874
vt 0.000000 0.000000
vt 0.278614 0.750000
vt 0.714521 0.731436
vt 0.714521 0.518563
vt 0.000000 0.000000
vt 0.000000 0.000000
vt 0.000000 0.000000
vt 0.587873 0.333334
vt 0.375000 0.846386
vt 0.388127 0.842137
vt 0.587872 0.916667
vt 0.637872 0.879043
vt 0.587873 0.916666
vt 0.000000 0.000000
vt 0.785479 0.731437
vt 0.785479 0.518563
vt 0.307227 0.750000
vt 0.250000 0.750000
vt 0.254249 0.736874
vt 0.000000 0.000000
vt 0.000000 0.000000
vt 0.000000 0.000000
vt 0.335853 0.750000
vt 0.335841 0.750000
vt 0.302978 0.736874
vt 0.000000 0.000000
vt 0.278614 0.750000
vt 0.714521 0.731436
vt 0.714521 0.518563
vt 0.000000 0.000000
vt 0.000000 0.000000
vt 0.000000 0.000000
vt 0.587873 0.333334
vt 0.375000 0.846386
vt 0.388127 0.842137
vt 0.587872 0.916667
vt 0.637872 0.879043
vt 0.587873 0.916666
vt 0.000000 0.000000
vt 0.785479 0.731437
vt 0.785479 0.518563
vt 0.307227 0.750000
vt 0.250000 0.750000
vt 0.254249 0.736874
vt 0.000000 0.000000
vt 0.000000 0.000000
vt 0.000000 0.000000
vt 0.335853 0.750000
vt 0.335841 0.750000
vt 0.302978 0.736874
vt 0.000000 0.000000
vt 0.278614 0.750000
vt 0.714521 0.731436
vt 0.714521 0.518563
vt 0.000000 0.000000
vt 0.000000 0.000000
vt 0.000000 0.000000
vt 0.587873 0.333334
vt 0.375000 0.846386
vt 0.388127 0.842137
vt 0.587872 0.916667
vt 0.637872 0.879043
vt 0.587873 0.916666
vt 0.000000 0.000000
vt 0.785479 0.731437
vt 0.785479 0.518563
vt 0.307227 0.750000
vt 0.250000 0.750000
vt 0.254249 0.736874
vt 0.000000 0.000000
vt 0.000000 0.000000
vt 0.000000 0.000000
vt 0.335853 0.750000
vt 0.335841 0.750000
vt 0.302978 0.736874
vt 0.000000 0.000000
vn -0.0000 0.7071 0.7071
vn -0.0001 0.7071 0.7071
vn 0.0000 -1.0000 -0.0000
vn 0.7071 -0.0000 0.7071
vn 0.0000 -0.7071 0.7071
vn -1.0000 -0.0000 0.0000
vn 0.0000 -0.0000 1.0000
vn -0.7071 -0.0000 0.7071
vn 1.0000 -0.0000 -0.0000
vn 0.0000 0.0000 -1.0000
vn -0.0000 1.0000 -0.0000
vn 0.0326 0.6290 0.7767
vn -0.1603 0.5434 0.8240
vn -0.8356 0.0829 0.5431
vn -0.8233 -0.0000 0.5677
vn -0.9358 -0.0833 0.3426
vn -0.9879 0.0000 -0.1552
vn -0.9879 0.1098 -0.1098
vn -0.9879 -0.1098 0.1098
vn 0.0160 -0.6897 0.7239
vn 0.0154 -0.6893 0.7243
vn 0.0187 -0.6891 0.7244
vn 0.0115 0.5576 0.8300
vn -0.6756 0.1355 0.7247
vn -0.7380 0.2445 0.6289
vn -0.8365 0.0828 0.5416
vn -0.8244 -0.0000 0.5661
vn -0.9351 -0.0823 0.3446
vn -0.9878 0.0000 -0.1559
vn -0.9878 0.1110 -0.1094
vn -0.9878 -0.1110 0.1094
vn 0.0867 -0.7257 0.6825
vn 0.0780 -0.7687 0.6349
vn -0.1236 -0.7520 0.6474
vn -0.1847 0.8136 0.5513
vn 0.3311 0.7843 0.5246
vn 0.3207 0.7464 0.5831
vn -0.8415 0.1013 0.5306
vn -0.8199 -0.0000 0.5726
vn -0.9207 -0.1020 0.3766
vn -0.9878 0.0000 -0.1557
vn -0.9878 0.1093 -0.1109
vn -0.9878 -0.1093 0.1109
vn -0.0451 -0.7460 0.6644
vn -0.0532 -0.7243 0.6874
vn 0.0439 -0.7023 0.7106
vn 0.0259 0.6005 0.7992
vn -0.1701 0.5464 0.8201
vn -0.8439 0.0727 0.5315
vn -0.8332 -0.0000 0.5530
vn -0.9315 -0.0731 0.3564
usemtl None.003
s 1
f 1/1/1 3/2/2 2/3/1
f 4/4/3 6/5/3 5/6/3
f 4/7/4 7/8/4 2/9/4
f 8/10/5 10/11/5 9/12/5
f 8/10/6 11/13/6 5/6/6
f 3/2/7 10/14/7 12/15/7
f 13/16/8 9/17/8 10/18/8
f 4/4/9 15/19/9 14/20/9
f 5/6/10 11/13/10 14/20/10
f 14/20/11 11/13/11 13/21/11
f 13/22/12 3/2/2 16/23/13
f 16/23/13 3/2/2 1/1/1
f 4/4/3 5/6/3 15/19/3
f 4/7/4 2/9/4 12/15/4
f 10/11/5 4/7/5 12/15/5
f 4/7/5 10/11/5 8/10/5
f 11/13/6 8/10/6 16/23/6
f 16/23/14 8/10/15 13/22/16
f 13/22/17 8/10/18 9/12/19
f 3/2/7 12/15/7 2/3/7
f 13/16/8 10/18/8 3/24/8
f 4/4/9 14/20/9 1/25/9
f 5/6/10 14/20/10 15/19/10
f 14/20/11 13/21/11 1/25/11
f 17/26/1 19/27/1 18/28/1
f 20/29/3 22/30/3 21/31/3
f 20/32/4 23/33/4 18/34/4
f 24/35/20 26/36/21 25/37/22
f 24/35/6 27/38/6 21/31/6
f 19/27/7 26/39/7 28/40/7
f 29/41/8 25/42/8 26/43/8
f 20/29/9 31/44/9 30/45/9
f 21/31/10 27/38/10 30/45/10
f 30/45/11 27/38/11 29/46/11
f 29/47/23 19/27/24 32/48/25
f 32/48/1 19/27/1 17/26/1
f 20/29/3 21/31/3 31/44/3
f 20/32/4 18/34/4 28/40/4
f 26/36/5 20/32/5 28/40/5
f 20/32/5 26/36/5 24/35/5
f 27/38/6 24/35/6 32/48/6
f 32/48/26 24/35/27 29/47/28
f 29/47/29 24/35/30 25/37/31
f 19/27/7 28/40/7 18/28/7
f 29/41/8 26/43/8 19/49/8
f 20/29/9 30/45/9 17/50/9
f 21/31/10 30/45/10 31/44/10
f 30/45/11 29/46/11 17/50/11
f 33/51/1 35/52/1 34/53/1
f 36/54/3 38/55/3 37/56/3
f 36/57/4 39/58/4 34/59/4
f 40/60/32 42/61/33 41/62/34
f 40/60/6 43/63/6 37/56/6
f 35/52/7 42/64/7 44/65/7
f 45/66/8 41/67/8 42/68/8
f 36/54/9 47/69/9 46/70/9
f 37/56/10 43/63/10 46/70/10
f 46/70/11 43/63/11 45/71/11
f 45/72/35 35/52/36 48/73/37
f 48/73/1 35/52/1 33/51/1
f 36/54/3 37/56/3 47/69/3
f 36/57/4 34/59/4 44/65/4
f 42/61/5 36/57/5 44/65/5
f 36/57/5 42/61/5 40/60/5
f 43/63/6 40/60/6 48/73/6
f 48/73/38 40/60/39 45/72/40
f 45/72/41 40/60/42 41/62/43
f 35/52/7 44/65/7 34/53/7
f 45/66/8 42/68/8 35/74/8
f 36/54/9 46/70/9 33/75/9
f 37/56/10 46/70/10 47/69/10
f 46/70/11 45/71/11 33/75/11
f 49/76/1 51/77/1 50/78/1
f 52/79/3 54/80/3 53/81/3
f 52/82/4 55/83/4 50/84/4
f 56/85/44 58/86/45 57/87/46
f 56/85/6 59/88/6 53/81/6
f 51/77/7 58/89/7 60/90/7
f 61/91/8 57/92/8 58/93/8
f 52/79/9 63/94/9 62/95/9
f 53/81/10 59/88/10 62/95/10
f 62/95/11 59/88/11 61/96/11
f 61/97/47 51/77/1 64/98/48
f 64/98/48 51/77/1 49/76/1
f 52/79/3 53/81/3 63/94/3
f 52/82/4 50/84/4 60/90/4
f 58/86/5 52/82/5 60/90/5
f 52/82/5 58/86/5 56/85/5
f 59/88/6 56/85/6 64/98/6
f 64/98/49 56/85/50 61/97/51
f 61/97/17 56/85/18 57/87/19
f 51/77/7 60/90/7 50/78/7
f 61/91/8 58/93/8 51/99/8
f 52/79/9 62/95/9 49/100/9
f 53/81/10 62/95/10 63/94/10
f 62/95/11 61/96/11 49/100/11
l 57 54
l 68 61
l 64 68
l 62 55
l 41 38
l 67 45
l 48 67
l 46 39
l 25 22
l 66 29
l 32 66
l 30 23
l 9 6
l 65 13
l 16 65
l 14 7
