# Blender v2.83.0 OBJ File: ''
# www.blender.org
mtllib Block_S.mtl
o Block_basic_Würfel.002
v 0.500001 0.499997 0.175746
v 0.425747 0.574255 0.250000
v -0.425746 0.574255 0.250000
v 0.500000 1.499998 0.175746
v -0.500000 1.500000 -0.250000
v -0.500000 1.500001 0.175746
v 0.500001 0.500002 0.175746
v -0.500000 1.499999 0.175744
v -0.500000 1.499997 0.175746
v -0.425746 1.425744 0.250000
v -0.500000 0.500000 -0.250000
v 0.425747 1.425744 0.250000
v -0.499999 0.500002 0.175746
v 0.500000 0.500000 -0.250000
v 0.500000 1.500000 -0.250000
v -0.500000 0.499999 0.175744
v 0.500001 -0.500003 0.175746
v 0.425747 -0.425745 0.250000
v -0.425746 -0.425745 0.250000
v 0.500000 0.499998 0.175746
v -0.500000 0.500000 -0.250000
v -0.500000 0.500001 0.175746
v 0.500001 -0.499998 0.175746
v -0.500000 0.499999 0.175744
v -0.500000 0.499997 0.175746
v -0.425746 0.425744 0.250000
v -0.500000 -0.500000 -0.250000
v 0.425747 0.425744 0.250000
v -0.499999 -0.499998 0.175746
v 0.500000 -0.500000 -0.250000
v 0.500000 0.500000 -0.250000
v -0.500000 -0.500001 0.175744
v -0.499999 -0.500003 0.175746
v -0.574253 -0.425745 0.250000
v -1.425746 -0.425745 0.249999
v -0.500000 0.499998 0.175746
v -1.500000 0.500000 -0.250001
v -1.500000 0.500001 0.175745
v -0.499999 -0.499998 0.175746
v -1.500000 0.499999 0.175743
v -1.500000 0.499997 0.175745
v -1.425746 0.425744 0.249999
v -1.500000 -0.500000 -0.250001
v -0.574253 0.425744 0.250000
v -1.499999 -0.499998 0.175745
v -0.500000 -0.500000 -0.250000
v -0.500000 0.500000 -0.250000
v -1.500000 -0.500001 0.175743
v 1.500001 0.499997 0.175747
v 1.425747 0.574255 0.250001
v 0.574254 0.574255 0.250000
v 1.500000 1.499998 0.175747
v 0.500000 1.500000 -0.250000
v 0.500000 1.500001 0.175746
v 1.500001 0.500002 0.175747
v 0.500000 1.499999 0.175744
v 0.500000 1.499997 0.175746
v 0.574254 1.425744 0.250000
v 0.500000 0.500000 -0.250000
v 1.425746 1.425744 0.250001
v 0.500001 0.500002 0.175746
v 1.500000 0.500000 -0.249999
v 1.500000 1.500000 -0.249999
v 0.500000 0.499999 0.175744
v -0.499999 0.499997 0.175746
v -0.499999 -0.500003 0.175746
v -1.499999 -0.500003 0.175745
v 0.500001 0.499997 0.175746
vt 0.278614 0.750000
vt 0.714521 0.518563
vt 0.714521 0.731436
vt 0.000000 0.000000
vt 0.000000 0.000000
vt 0.000000 0.000000
vt 0.587873 0.333334
vt 0.388127 0.842137
vt 0.375000 0.846386
vt 0.587872 0.916667
vt 0.587873 0.916666
vt 0.637872 0.879043
vt 0.000000 0.000000
vt 0.785479 0.518563
vt 0.785479 0.731437
vt 0.307227 0.750000
vt 0.254249 0.736874
vt 0.250000 0.750000
vt 0.000000 0.000000
vt 0.000000 0.000000
vt 0.000000 0.000000
vt 0.335853 0.750000
vt 0.335841 0.750000
vt 0.302978 0.736874
vt 0.000000 0.000000
vt 0.278614 0.750000
vt 0.714521 0.518563
vt 0.714521 0.731436
vt 0.000000 0.000000
vt 0.000000 0.000000
vt 0.000000 0.000000
vt 0.587873 0.333334
vt 0.388127 0.842137
vt 0.375000 0.846386
vt 0.587872 0.916667
vt 0.587873 0.916666
vt 0.637872 0.879043
vt 0.000000 0.000000
vt 0.785479 0.518563
vt 0.785479 0.731437
vt 0.307227 0.750000
vt 0.254249 0.736874
vt 0.250000 0.750000
vt 0.000000 0.000000
vt 0.000000 0.000000
vt 0.000000 0.000000
vt 0.335853 0.750000
vt 0.335841 0.750000
vt 0.302978 0.736874
vt 0.000000 0.000000
vt 0.278614 0.750000
vt 0.714521 0.518563
vt 0.714521 0.731436
vt 0.000000 0.000000
vt 0.000000 0.000000
vt 0.000000 0.000000
vt 0.587873 0.333334
vt 0.388127 0.842137
vt 0.375000 0.846386
vt 0.587872 0.916667
vt 0.587873 0.916666
vt 0.637872 0.879043
vt 0.000000 0.000000
vt 0.785479 0.518563
vt 0.785479 0.731437
vt 0.307227 0.750000
vt 0.254249 0.736874
vt 0.250000 0.750000
vt 0.000000 0.000000
vt 0.000000 0.000000
vt 0.000000 0.000000
vt 0.335853 0.750000
vt 0.335841 0.750000
vt 0.302978 0.736874
vt 0.000000 0.000000
vt 0.278614 0.750000
vt 0.714521 0.518563
vt 0.714521 0.731436
vt 0.000000 0.000000
vt 0.000000 0.000000
vt 0.000000 0.000000
vt 0.587873 0.333334
vt 0.388127 0.842137
vt 0.375000 0.846386
vt 0.587872 0.916667
vt 0.587873 0.916666
vt 0.637872 0.879043
vt 0.000000 0.000000
vt 0.785479 0.518563
vt 0.785479 0.731437
vt 0.307227 0.750000
vt 0.254249 0.736874
vt 0.250000 0.750000
vt 0.000000 0.000000
vt 0.000000 0.000000
vt 0.000000 0.000000
vt 0.335853 0.750000
vt 0.335841 0.750000
vt 0.302978 0.736874
vt 0.000000 0.000000
vn -0.0000 -0.7071 0.7071
vn -0.0001 -0.7071 0.7072
vn 0.0000 1.0000 -0.0000
vn 0.7071 0.0000 0.7071
vn 0.0000 0.7433 0.6690
vn -1.0000 -0.0000 -0.0000
vn -0.0000 -0.0000 1.0000
vn -0.7071 -0.0000 0.7071
vn 1.0000 0.0000 -0.0000
vn 0.0000 0.0000 -1.0000
vn -0.0000 -1.0000 -0.0000
vn -0.0028 -0.6588 0.7523
vn -0.0004 -0.6915 0.7224
vn -0.0000 0.7071 0.7071
vn -0.9462 0.0000 0.3237
vn -0.9879 -0.0000 0.1552
vn -0.9879 -0.0005 0.1552
vn -0.9879 -0.0010 0.1552
vn 0.0195 0.7070 0.7070
vn -0.0101 -0.7077 0.7064
vn -0.0177 -0.7040 0.7100
vn -0.0054 -0.7111 0.7030
vn -0.9474 -0.0002 0.3199
vn -0.9474 -0.0004 0.3199
vn -0.9474 0.0000 0.3199
vn -0.9878 -0.0000 0.1559
vn 0.0367 0.6873 0.7254
vn 0.0368 0.6871 0.7256
vn 0.0435 -0.7253 0.6870
vn 0.0130 -0.7126 0.7014
vn -0.9398 -0.0000 0.3417
vn 0.0000 0.7251 0.6887
vn -0.0000 0.7250 0.6888
vn 0.0000 0.7250 0.6887
vn -0.0066 -0.6946 0.7194
vn -0.0013 -0.7034 0.7108
vn -0.9402 -0.0002 0.3406
vn -0.9403 -0.0005 0.3403
vn -0.9403 0.0000 0.3404
usemtl None.005
s 1
f 1/1/1 2/2/1 3/3/2
f 4/4/3 5/5/3 6/6/3
f 4/7/4 2/8/4 7/9/4
f 8/10/5 9/11/5 10/12/5
f 8/10/6 5/5/6 11/13/6
f 3/3/7 12/14/7 10/15/7
f 13/16/8 10/17/8 9/18/8
f 4/4/9 14/19/9 15/20/9
f 5/5/10 14/19/10 11/13/10
f 14/19/11 13/21/11 11/13/11
f 13/22/12 16/23/13 3/3/2
f 16/23/13 1/1/1 3/3/2
f 4/4/3 15/20/3 5/5/3
f 4/7/4 12/14/4 2/8/4
f 10/12/14 12/14/14 4/7/14
f 4/7/14 8/10/14 10/12/14
f 11/13/6 16/23/6 8/10/6
f 16/23/15 13/22/15 8/10/15
f 13/22/16 9/11/17 8/10/18
f 3/3/7 2/2/7 12/14/7
f 13/16/8 3/24/8 10/17/8
f 4/4/9 1/25/9 14/19/9
f 5/5/10 15/20/10 14/19/10
f 14/19/11 1/25/11 13/21/11
f 17/26/1 18/27/1 19/28/1
f 20/29/3 21/30/3 22/31/3
f 20/32/4 18/33/4 23/34/4
f 24/35/19 25/36/19 26/37/19
f 24/35/6 21/30/6 27/38/6
f 19/28/7 28/39/7 26/40/7
f 29/41/8 26/42/8 25/43/8
f 20/29/9 30/44/9 31/45/9
f 21/30/10 30/44/10 27/38/10
f 30/44/11 29/46/11 27/38/11
f 29/47/20 32/48/21 19/28/22
f 32/48/1 17/26/1 19/28/1
f 20/29/3 31/45/3 21/30/3
f 20/32/4 28/39/4 18/33/4
f 26/37/14 28/39/14 20/32/14
f 20/32/14 24/35/14 26/37/14
f 27/38/6 32/48/6 24/35/6
f 32/48/23 29/47/24 24/35/25
f 29/47/26 25/36/26 24/35/26
f 19/28/7 18/27/7 28/39/7
f 29/41/8 19/49/8 26/42/8
f 20/29/9 17/50/9 30/44/9
f 21/30/10 31/45/10 30/44/10
f 30/44/11 17/50/11 29/46/11
f 33/51/1 34/52/1 35/53/1
f 36/54/3 37/55/3 38/56/3
f 36/57/4 34/58/4 39/59/4
f 40/60/27 41/61/27 42/62/28
f 40/60/6 37/55/6 43/63/6
f 35/53/7 44/64/7 42/65/7
f 45/66/8 42/67/8 41/68/8
f 36/54/9 46/69/9 47/70/9
f 37/55/10 46/69/10 43/63/10
f 46/69/11 45/71/11 43/63/11
f 45/72/29 48/73/30 35/53/1
f 48/73/30 33/51/1 35/53/1
f 36/54/3 47/70/3 37/55/3
f 36/57/4 44/64/4 34/58/4
f 42/62/14 44/64/14 36/57/14
f 36/57/14 40/60/14 42/62/14
f 43/63/6 48/73/6 40/60/6
f 48/73/31 45/72/31 40/60/31
f 45/72/26 41/61/26 40/60/26
f 35/53/7 34/52/7 44/64/7
f 45/66/8 35/74/8 42/67/8
f 36/54/9 33/75/9 46/69/9
f 37/55/10 47/70/10 46/69/10
f 46/69/11 33/75/11 45/71/11
f 49/76/1 50/77/1 51/78/2
f 52/79/3 53/80/3 54/81/3
f 52/82/4 50/83/4 55/84/4
f 56/85/32 57/86/33 58/87/34
f 56/85/6 53/80/6 59/88/6
f 51/78/7 60/89/7 58/90/7
f 61/91/8 58/92/8 57/93/8
f 52/79/9 62/94/9 63/95/9
f 53/80/10 62/94/10 59/88/10
f 62/94/11 61/96/11 59/88/11
f 61/97/35 64/98/36 51/78/2
f 64/98/36 49/76/1 51/78/2
f 52/79/3 63/95/3 53/80/3
f 52/82/4 60/89/4 50/83/4
f 58/87/14 60/89/14 52/82/14
f 52/82/14 56/85/14 58/87/14
f 59/88/6 64/98/6 56/85/6
f 64/98/37 61/97/38 56/85/39
f 61/97/16 57/86/17 56/85/18
f 51/78/7 50/77/7 60/89/7
f 61/91/8 51/99/8 58/92/8
f 52/79/9 49/100/9 62/94/9
f 53/80/10 63/95/10 62/94/10
f 62/94/11 49/100/11 61/96/11
l 57 54
l 68 61
l 64 68
l 62 55
l 41 38
l 67 45
l 48 67
l 46 39
l 25 22
l 66 29
l 32 66
l 30 23
l 9 6
l 65 13
l 16 65
l 14 7
