# Blender v2.83.0 OBJ File: ''
# www.blender.org
mtllib Block_T.mtl
o Block_basic_Würfel.003
v 0.500001 0.499997 0.175746
v 0.425747 0.574255 0.250000
v -0.425746 0.574255 0.250000
v 0.500000 1.499998 0.175746
v -0.500000 1.500000 -0.250000
v -0.500000 1.500001 0.175746
v 0.500001 0.500002 0.175746
v -0.500000 1.499999 0.175744
v -0.500000 1.499997 0.175746
v -0.425746 1.425744 0.250000
v -0.500000 0.500000 -0.250000
v 0.425747 1.425744 0.250000
v -0.499999 0.500002 0.175746
v 0.500000 0.500000 -0.250000
v 0.500000 1.500000 -0.250000
v -0.500000 0.499999 0.175744
v 0.500001 -0.500003 0.175746
v 0.425747 -0.425745 0.250000
v -0.425746 -0.425745 0.250000
v 0.500000 0.499998 0.175746
v -0.500000 0.500000 -0.250000
v -0.500000 0.500001 0.175746
v 0.500001 -0.499998 0.175746
v -0.500000 0.499999 0.175744
v -0.500000 0.499997 0.175746
v -0.425746 0.425744 0.250000
v -0.500000 -0.500000 -0.250000
v 0.425747 0.425744 0.250000
v -0.499999 -0.499998 0.175746
v 0.500000 -0.500000 -0.250000
v 0.500000 0.500000 -0.250000
v -0.500000 -0.500001 0.175744
v -0.499999 0.499997 0.175746
v -0.574253 0.574255 0.250000
v -1.425746 0.574255 0.249999
v -0.500000 1.499998 0.175746
v -1.500000 1.500000 -0.250001
v -1.500000 1.500001 0.175745
v -0.499999 0.500002 0.175746
v -1.500000 1.499999 0.175743
v -1.500000 1.499997 0.175745
v -1.425746 1.425744 0.249999
v -1.500000 0.500000 -0.250001
v -0.574253 1.425744 0.250000
v -1.499999 0.500002 0.175745
v -0.500000 0.500000 -0.250000
v -0.500000 1.500000 -0.250000
v -1.500000 0.499999 0.175743
v 1.500001 0.499997 0.175747
v 1.425747 0.574255 0.250001
v 0.574254 0.574255 0.250000
v 1.500000 1.499998 0.175747
v 0.500000 1.500000 -0.250000
v 0.500000 1.500001 0.175746
v 1.500001 0.500002 0.175747
v 0.500000 1.499999 0.175744
v 0.500000 1.499997 0.175746
v 0.574254 1.425744 0.250000
v 0.500000 0.500000 -0.250000
v 1.425746 1.425744 0.250001
v 0.500001 0.500002 0.175746
v 1.500000 0.500000 -0.249999
v 1.500000 1.500000 -0.249999
v 0.500000 0.499999 0.175744
v -0.499999 0.499997 0.175746
v -0.499999 -0.500003 0.175746
v -1.499999 0.499997 0.175745
v 0.500001 0.499997 0.175746
vt 0.278614 0.750000
vt 0.714521 0.518563
vt 0.714521 0.731436
vt 0.000000 0.000000
vt 0.000000 0.000000
vt 0.000000 0.000000
vt 0.587873 0.333334
vt 0.388127 0.842137
vt 0.375000 0.846386
vt 0.587872 0.916667
vt 0.587873 0.916666
vt 0.637872 0.879043
vt 0.000000 0.000000
vt 0.785479 0.518563
vt 0.785479 0.731437
vt 0.307227 0.750000
vt 0.254249 0.736874
vt 0.250000 0.750000
vt 0.000000 0.000000
vt 0.000000 0.000000
vt 0.000000 0.000000
vt 0.335853 0.750000
vt 0.335841 0.750000
vt 0.302978 0.736874
vt 0.000000 0.000000
vt 0.278614 0.750000
vt 0.714521 0.518563
vt 0.714521 0.731436
vt 0.000000 0.000000
vt 0.000000 0.000000
vt 0.000000 0.000000
vt 0.587873 0.333334
vt 0.388127 0.842137
vt 0.375000 0.846386
vt 0.587872 0.916667
vt 0.587873 0.916666
vt 0.637872 0.879043
vt 0.000000 0.000000
vt 0.785479 0.518563
vt 0.785479 0.731437
vt 0.307227 0.750000
vt 0.254249 0.736874
vt 0.250000 0.750000
vt 0.000000 0.000000
vt 0.000000 0.000000
vt 0.000000 0.000000
vt 0.335853 0.750000
vt 0.335841 0.750000
vt 0.302978 0.736874
vt 0.000000 0.000000
vt 0.278614 0.750000
vt 0.714521 0.518563
vt 0.714521 0.731436
vt 0.000000 0.000000
vt 0.000000 0.000000
vt 0.000000 0.000000
vt 0.587873 0.333334
vt 0.388127 0.842137
vt 0.375000 0.846386
vt 0.587872 0.916667
vt 0.587873 0.916666
vt 0.637872 0.879043
vt 0.000000 0.000000
vt 0.785479 0.518563
vt 0.785479 0.731437
vt 0.307227 0.750000
vt 0.254249 0.736874
vt 0.250000 0.750000
vt 0.000000 0.000000
vt 0.000000 0.000000
vt 0.000000 0.000000
vt 0.335853 0.750000
vt 0.335841 0.750000
vt 0.302978 0.736874
vt 0.000000 0.000000
vt 0.278614 0.750000
vt 0.714521 0.518563
vt 0.714521 0.731436
vt 0.000000 0.000000
vt 0.000000 0.000000
vt 0.000000 0.000000
vt 0.587873 0.333334
vt 0.388127 0.842137
vt 0.375000 0.846386
vt 0.587872 0.916667
vt 0.587873 0.916666
vt 0.637872 0.879043
vt 0.000000 0.000000
vt 0.785479 0.518563
vt 0.785479 0.731437
vt 0.307227 0.750000
vt 0.254249 0.736874
vt 0.250000 0.750000
vt 0.000000 0.000000
vt 0.000000 0.000000
vt 0.000000 0.000000
vt 0.335853 0.750000
vt 0.335841 0.750000
vt 0.302978 0.736874
vt 0.000000 0.000000
vn -0.0000 -0.7071 0.7071
vn 0.0000 1.0000 -0.0000
vn 0.7071 0.0000 0.7071
vn 0.0000 0.7071 0.7071
vn -1.0000 -0.0000 -0.0000
vn -0.0000 -0.0000 1.0000
vn -0.7071 -0.0000 0.7071
vn 1.0000 0.0000 0.0000
vn 0.0000 0.0000 -1.0000
vn -0.0000 -1.0000 -0.0000
vn -0.0202 -0.6585 0.7523
vn -0.0062 -0.6916 0.7223
vn -0.9442 -0.0002 0.3294
vn -0.9443 -0.0004 0.3292
vn -0.9442 0.0000 0.3293
vn -0.9879 -0.0000 0.1552
vn -0.9879 -0.0005 0.1552
vn -0.9879 -0.0010 0.1552
vn 0.0190 0.6886 0.7249
vn -0.0217 -0.7208 0.6928
vn -0.0242 -0.7195 0.6940
vn -0.0232 -0.7200 0.6935
vn -0.9454 -0.0000 0.3258
vn -0.9455 -0.0000 0.3255
vn -0.9455 0.0000 0.3257
vn -0.9878 -0.0000 0.1559
vn 0.0530 0.7061 0.7061
vn -0.0001 -0.6501 0.7599
vn 0.0006 -0.6507 0.7593
vn -0.0000 -0.6508 0.7593
vn -0.9363 -0.0001 0.3512
vn -0.9364 -0.0003 0.3510
vn -0.9363 0.0000 0.3511
vn -0.9879 0.0014 0.1552
vn -0.9879 0.0030 0.1552
vn -0.0001 -0.7071 0.7071
vn 0.0000 0.7251 0.6887
vn -0.0000 0.7250 0.6888
vn 0.0000 0.7250 0.6887
vn 0.0168 -0.7075 0.7065
vn 0.0056 -0.7070 0.7072
vn -0.9442 0.0002 0.3294
vn -0.9443 0.0004 0.3292
usemtl None.006
s 1
f 1/1/1 2/2/1 3/3/1
f 4/4/2 5/5/2 6/6/2
f 4/7/3 2/8/3 7/9/3
f 8/10/4 9/11/4 10/12/4
f 8/10/5 5/5/5 11/13/5
f 3/3/6 12/14/6 10/15/6
f 13/16/7 10/17/7 9/18/7
f 4/4/8 14/19/8 15/20/8
f 5/5/9 14/19/9 11/13/9
f 14/19/10 13/21/10 11/13/10
f 13/22/11 16/23/12 3/3/1
f 16/23/12 1/1/1 3/3/1
f 4/4/2 15/20/2 5/5/2
f 4/7/3 12/14/3 2/8/3
f 10/12/4 12/14/4 4/7/4
f 4/7/4 8/10/4 10/12/4
f 11/13/5 16/23/5 8/10/5
f 16/23/13 13/22/14 8/10/15
f 13/22/16 9/11/17 8/10/18
f 3/3/6 2/2/6 12/14/6
f 13/16/7 3/24/7 10/17/7
f 4/4/8 1/25/8 14/19/8
f 5/5/9 15/20/9 14/19/9
f 14/19/10 1/25/10 13/21/10
f 17/26/1 18/27/1 19/28/1
f 20/29/2 21/30/2 22/31/2
f 20/32/3 18/33/3 23/34/3
f 24/35/19 25/36/19 26/37/19
f 24/35/5 21/30/5 27/38/5
f 19/28/6 28/39/6 26/40/6
f 29/41/7 26/42/7 25/43/7
f 20/29/8 30/44/8 31/45/8
f 21/30/9 30/44/9 27/38/9
f 30/44/10 29/46/10 27/38/10
f 29/47/20 32/48/21 19/28/22
f 32/48/1 17/26/1 19/28/1
f 20/29/2 31/45/2 21/30/2
f 20/32/3 28/39/3 18/33/3
f 26/37/4 28/39/4 20/32/4
f 20/32/4 24/35/4 26/37/4
f 27/38/5 32/48/5 24/35/5
f 32/48/23 29/47/24 24/35/25
f 29/47/26 25/36/26 24/35/26
f 19/28/6 18/27/6 28/39/6
f 29/41/7 19/49/7 26/42/7
f 20/29/8 17/50/8 30/44/8
f 21/30/9 31/45/9 30/44/9
f 30/44/10 17/50/10 29/46/10
f 33/51/1 34/52/1 35/53/1
f 36/54/2 37/55/2 38/56/2
f 36/57/3 34/58/3 39/59/3
f 40/60/27 41/61/27 42/62/27
f 40/60/5 37/55/5 43/63/5
f 35/53/6 44/64/6 42/65/6
f 45/66/7 42/67/7 41/68/7
f 36/54/8 46/69/8 47/70/8
f 37/55/9 46/69/9 43/63/9
f 46/69/10 45/71/10 43/63/10
f 45/72/28 48/73/29 35/53/30
f 48/73/1 33/51/1 35/53/1
f 36/54/2 47/70/2 37/55/2
f 36/57/3 44/64/3 34/58/3
f 42/62/4 44/64/4 36/57/4
f 36/57/4 40/60/4 42/62/4
f 43/63/5 48/73/5 40/60/5
f 48/73/31 45/72/32 40/60/33
f 45/72/16 41/61/34 40/60/35
f 35/53/6 34/52/6 44/64/6
f 45/66/7 35/74/7 42/67/7
f 36/54/8 33/75/8 46/69/8
f 37/55/9 47/70/9 46/69/9
f 46/69/10 33/75/10 45/71/10
f 49/76/1 50/77/1 51/78/36
f 52/79/2 53/80/2 54/81/2
f 52/82/3 50/83/3 55/84/3
f 56/85/37 57/86/38 58/87/39
f 56/85/5 53/80/5 59/88/5
f 51/78/6 60/89/6 58/90/6
f 61/91/7 58/92/7 57/93/7
f 52/79/8 62/94/8 63/95/8
f 53/80/9 62/94/9 59/88/9
f 62/94/10 61/96/10 59/88/10
f 61/97/40 64/98/41 51/78/36
f 64/98/41 49/76/1 51/78/36
f 52/79/2 63/95/2 53/80/2
f 52/82/3 60/89/3 50/83/3
f 58/87/4 60/89/4 52/82/4
f 52/82/4 56/85/4 58/87/4
f 59/88/5 64/98/5 56/85/5
f 64/98/42 61/97/43 56/85/15
f 61/97/16 57/86/17 56/85/18
f 51/78/6 50/77/6 60/89/6
f 61/91/7 51/99/7 58/92/7
f 52/79/8 49/100/8 62/94/8
f 53/80/9 63/95/9 62/94/9
f 62/94/10 49/100/10 61/96/10
l 57 54
l 68 61
l 64 68
l 62 55
l 41 38
l 67 45
l 48 67
l 46 39
l 25 22
l 66 29
l 32 66
l 30 23
l 9 6
l 65 13
l 16 65
l 14 7
